<?xml version="1.0" encoding="UTF-8" standalone="no"?>
<!DOCTYPE svg PUBLIC "-//W3C//DTD SVG 1.1//EN" "http://www.w3.org/Graphics/SVG/1.1/DTD/svg11.dtd">
<svg width="100%" height="100%" viewBox="0 0 247 246" version="1.1" xmlns="http://www.w3.org/2000/svg" xmlns:xlink="http://www.w3.org/1999/xlink" xml:space="preserve" xmlns:serif="http://www.serif.com/" style="fill-rule:evenodd;clip-rule:evenodd;">
    <g transform="matrix(1,0,0,1,11.0332,10.8976)">
        <g transform="matrix(1,0,0,1,-873.121,-487.926)">
            <g transform="matrix(1,0,0,1,485.08,304.02)">
                <g>
                    <path d="M579.228,185.5C596.8,185.5 611,200.102 611,218.059L611,373.941C611,391.898 596.8,406.5 579.228,406.5L421.272,406.5C403.7,406.5 389.5,391.898 389.5,373.941L389.5,218.059C389.5,200.102 403.7,185.5 421.272,185.5L579.228,185.5Z" style="fill-opacity:0.643137;fill-rule:nonzero;"/>
                    <path d="M421.272,189.5L579.228,189.5C594.566,189.5 607,202.286 607,218.059L607,373.941C607,389.714 594.566,402.5 579.228,402.5L421.272,402.5C405.934,402.5 393.5,389.714 393.5,373.941L393.5,218.059C393.5,202.286 405.934,189.5 421.272,189.5Z" style="fill:url(#_Linear1);fill-rule:nonzero;"/>
                    <path d="M421.272,189.5L579.228,189.5C594.566,189.5 607,202.286 607,218.059L607,373.941C607,389.714 594.566,402.5 579.228,402.5L421.272,402.5C405.934,402.5 393.5,389.714 393.5,373.941L393.5,218.059C393.5,202.286 405.934,189.5 421.272,189.5Z" style="fill-opacity:0;fill-rule:nonzero;stroke:rgb(41,82,139);stroke-width:8px;"/>
                </g>
                <g transform="matrix(-0.002,-1,1,-0.002,445.783,382.839)">
                    <g>
                        <text x="0px" y="0px" style="font-family:'Optima-BoldItalic', 'Optima';font-weight:700;font-style:italic;font-size:42px;fill:rgb(67,89,165);">Peregrine</text>
                    </g>
                </g>
                <g>
                    <path d="M498.431,224.439C498.928,232.061 500.585,231.398 498.762,234.878C496.94,238.357 496.774,240.843 491.637,252.773C486.501,264.703 486.335,265.862 480.536,275.141C474.737,284.42 469.931,289.888 476.062,284.752C482.193,279.615 479.707,282.598 485.838,276.301C491.969,270.005 489.318,273.319 496.277,265.531C503.236,257.743 500.585,260.395 507.378,253.767C514.172,247.139 516.657,248.133 518.646,243.825C520.634,239.517 521.297,241.505 519.64,237.86C517.983,234.215 518.314,231.564 512.349,228.913C506.384,226.261 498.431,224.439 498.431,224.439Z" style="fill:rgb(67,89,165);fill-rule:nonzero;"/>
                    <path d="M499.094,255.369C498.276,257.496 496.967,264.695 496.803,269.276C496.64,273.857 495.331,275.493 495.658,280.401C495.985,285.309 495.331,283.509 495.658,290.872C495.985,298.234 493.531,295.616 497.131,302.978C500.73,310.341 500.566,312.14 503.348,311.65C506.129,311.159 505.643,310.116 507.481,307.108C510.906,301.501 510.219,307.723 508.91,300.197C507.601,292.671 508.316,294.079 507.274,286.728C506.364,280.31 506.231,283.658 506.364,276.867C506.507,269.579 506.253,267.321 506.829,262.258C507.318,257.967 508.281,257.537 507.378,253.767C506.661,250.767 499.094,255.369 499.094,255.369Z" style="fill:rgb(67,89,165);fill-rule:nonzero;"/>
                    <path d="M530.179,218.722C526.742,221.947 526.991,218.727 527.68,224.439C528.037,227.4 528.927,229.819 529.581,232.764C530.236,235.709 530.992,236.009 530.79,238.17C530.599,240.205 531.108,240.078 528.706,242.772C524.677,247.292 516.763,253.079 524.943,248.334C533.124,243.59 533.402,244.638 535.087,241.626C536.362,239.348 536.293,238.984 538.828,238.514C542.964,237.747 543.343,237.924 546.191,235.736C548.746,233.773 549.992,233.223 549.873,229.276C549.81,227.19 550.281,225.75 547.928,223.753C543.833,220.28 544.654,220.632 539.037,219.343C533.985,218.183 530.179,218.722 530.179,218.722Z" style="fill:rgb(67,89,165);fill-rule:nonzero;"/>
                    <path d="M508.91,253.687C513.979,255.996 512.208,258.715 517.498,256.994C521.942,255.549 521.434,254.514 526.274,252.897C529.648,251.769 527.398,252.768 535.414,250.142C543.431,247.516 544.713,247.025 549.634,246.698C554.556,246.371 553.619,246.392 557.055,246.883C560.491,247.373 565.759,248.456 564.941,244.529C564.123,240.603 564.621,239.683 560.489,239.315C553.317,238.674 554.758,238.997 549.634,240.014C542.093,241.512 547.769,240.703 539.121,242.685C531.215,244.497 536.802,244.15 528.691,245.801C521.091,247.349 518.958,248.981 514.769,250.142C510.828,251.234 508.91,253.687 508.91,253.687Z" style="fill:rgb(67,89,165);fill-rule:nonzero;"/>
                    <path d="M521.114,248.189C522.825,250.142 522.942,250.142 524.453,252.897C527.007,257.553 526.945,254.904 527.451,261.485C527.958,268.065 527.424,263.942 527.804,268.877C528.183,273.812 528.579,272.681 528.563,277.735C528.534,286.759 525.81,284.193 526.791,288.238C527.413,290.798 527.474,293.256 530.133,293.335C535.067,293.482 535.795,291.152 538.92,290.293C542.03,289.437 541.564,289.554 542.356,286.728C543.902,281.215 543.495,283.429 543.622,277.355C543.748,271.281 543.242,275.078 543.116,269.003C542.989,262.929 543.495,266.128 543.116,259.512C542.736,252.897 545.037,255.036 542.938,251.312C539.827,245.794 543.347,246.259 538.081,244.629C532.85,243.01 533.472,243.847 531.231,243.965C525.432,244.268 521.114,248.189 521.114,248.189Z" style="fill:rgb(67,89,165);fill-rule:nonzero;"/>
                    <path d="M512.664,267.17C514.072,269.636 514.356,269.652 516.413,271.098C518.906,272.851 519.724,272.197 521.434,271.914C523.136,271.632 521.223,272.04 526.285,269.51C531.347,266.979 528.213,268.24 534.16,266.089C540.108,263.938 537.996,264.398 543.833,263.481C549.209,262.637 546.515,262.812 549.634,263.1C552.452,263.359 556.434,263.147 556.419,260.492C556.405,257.886 556.311,257.134 555.847,256.804C552.581,254.48 550.723,254.617 547.388,255.532C543.933,256.479 546.086,256.482 540.138,258.203C534.191,259.923 539.405,258.595 532.825,260.619C526.244,262.644 531.267,260.947 525.066,262.845C518.865,264.743 512.664,267.17 512.664,267.17Z" style="fill:rgb(67,89,165);fill-rule:nonzero;"/>
                    <path d="M514.769,282.67C516.035,284.821 515.782,284.687 517.553,285.707C519.325,286.728 517.847,286.728 521.434,286.728C525.02,286.728 522.236,286.973 526.285,285.328C530.335,283.683 529.702,283.556 533.372,282.544C537.041,281.531 535.97,281.406 540.205,280.392C542.998,279.724 542.51,279.959 544.469,279.886C546.381,279.815 549.637,280.019 551.721,280.139C553.92,280.266 554.264,280.14 556.029,279C558.538,277.381 559.281,276.669 559.054,275.861C558.673,274.499 558.364,274.069 558.301,273.939C557.036,271.31 558.662,272.351 556.029,270.685C555.081,270.084 553.977,270.372 549.634,270.648C541.881,271.141 547.038,270.031 540.332,272.554C533.625,275.078 535.902,276.469 529.828,277.608C523.754,278.747 523.858,279.633 520.579,280.266C517.3,280.899 514.769,282.67 514.769,282.67Z" style="fill:rgb(67,89,165);fill-rule:nonzero;"/>
                    <path d="M508.281,298.723C509.91,301.983 508.844,299.983 511.016,302.856C512.82,305.242 510.932,306.125 518.524,303.088C526.117,300.051 525.189,300.717 528.361,300.062C533.716,298.956 534.026,298.543 539.012,298.141C548.221,297.399 544.88,297.279 549.634,297.349C555.891,297.443 554.772,298.849 559.093,299.072C562.468,299.247 563.194,299.754 564.86,296.464C566.526,293.173 566.232,294.535 564.86,291.956C563.489,289.377 565.382,289.496 560.705,288.112C556.029,286.728 555.684,286.974 551.41,287.781C545.24,288.945 548.101,288.532 540.002,290.225C531.903,291.919 531.002,291.725 527.371,293.31C522.834,295.291 525.987,294.031 519.165,295.929C512.343,297.828 508.281,298.723 508.281,298.723Z" style="fill:rgb(67,89,165);fill-rule:nonzero;"/>
                    <path d="M460.899,328.125L469.755,334.29L479.956,339.111L494.193,332.609L503.049,328.349L514.769,324.426L521.114,322.632L532.083,319.942L543.833,317.363L555.513,316.915L566.002,317.475L576.139,320.39L583.202,322.296L588.807,319.942L592.369,314.673L589.703,308.619L583.426,305.027L574.121,305.027L563.808,305.929L549.88,308.731L536.343,312.52L519.08,314.561L504.731,317.139L492.175,319.493L479.844,322.071L460.899,328.125Z" style="fill:rgb(67,89,165);fill-rule:nonzero;"/>
                    <path d="M519.08,301.669L520.131,306.938L520.131,312.296L520.931,321.511L520.131,331.712L520.931,342.362L522.219,350.321C522.219,350.321 523.003,355.029 523.115,356.374C523.227,357.72 526.366,366.688 526.366,366.688L529.617,370.163L533.653,367.248L536.904,361.195L538.809,354.357L540.379,346.285L541.164,336.42L541.836,327.677L541.052,319.942L540.491,309.292L537.688,304.803L528.945,300.884" style="fill:rgb(67,89,165);fill-rule:nonzero;"/>
                </g>
            </g>
        </g>
    </g>
    <defs>
        <linearGradient id="_Linear1" x1="0" y1="0" x2="1" y2="0" gradientUnits="userSpaceOnUse" gradientTransform="matrix(1.30425e-14,213,-213,1.30425e-14,500.25,189.5)"><stop offset="0" style="stop-color:white;stop-opacity:1"/><stop offset="1" style="stop-color:rgb(212,212,212);stop-opacity:1"/></linearGradient>
    </defs>
</svg>
